<svg id="Layer_1" data-name="Layer 1" xmlns="http://www.w3.org/2000/svg" viewBox="0 0 400 400"><defs><style>.cls-1{fill:#e8e6e2;}</style></defs><path class="cls-1" d="M75.6,215.65c.7,2.08,1.48,4.26,2.35,6.52s1.83,4.43,2.87,6.52a142,142,0,0,0,28.69,42.77,133.26,133.26,0,0,0,41.72,29.21q27.12,11.47,54.25,11.47H324.4V330.4q-28.69.53-57.38.26t-57.37.26a131.74,131.74,0,0,1-42.77-6,123.39,123.39,0,0,1-38.08-19.56,131.89,131.89,0,0,1-35.72-39.64A133.45,133.45,0,0,1,75.6,215.65Zm0,23.47q2.09,5.74,4.44,11.47a113.86,113.86,0,0,0,5.47,11.48,131.65,131.65,0,0,0,27.91,37.29,126,126,0,0,0,39.38,25.3,120.08,120.08,0,0,0,55.28,10.95H324.4v18.78H207.56a121.79,121.79,0,0,1-43-6.78,130.19,130.19,0,0,1-38.33-20.86,124.64,124.64,0,0,1-33.91-38.6A136.73,136.73,0,0,1,75.6,239.12Zm0,24q3.14,8.88,7,17.48a111,111,0,0,0,9.65,17,142.7,142.7,0,0,0,33.38,35.2,132.46,132.46,0,0,0,43.82,21.65,138.07,138.07,0,0,0,39.12,5.21H324.4v18.78H205.48A136.31,136.31,0,0,1,158.27,369a130.71,130.71,0,0,1-40.94-25.55,136.73,136.73,0,0,1-27.64-36.51A131.92,131.92,0,0,1,75.6,263.11Zm1.05-64.67a41.65,41.65,0,0,1,2.08,5.21A143.6,143.6,0,0,0,109,250.33a128.79,128.79,0,0,0,46.42,31,112.08,112.08,0,0,0,25.29,7.56,153.78,153.78,0,0,0,26.86,2.35H324.4v15.65H207.56a124,124,0,0,1-44.85-7.31,130.94,130.94,0,0,1-39.64-22.43,101.73,101.73,0,0,1-16.95-16.69,175,175,0,0,1-13.83-19.82,134.68,134.68,0,0,1-9.65-20.34A126.45,126.45,0,0,1,76.65,198.44Zm13-104.84a.46.46,0,0,1-.53.52V93.6ZM97,78a.47.47,0,0,1,.52.52h-1A.46.46,0,0,1,97,78Zm0,7.82a.47.47,0,0,1,.52.53h-1A.46.46,0,0,1,97,85.77Zm.52,7.83a.46.46,0,0,1-.52.52l-.52-.52h1Zm0,7.82a.46.46,0,0,1-.52.52v-.52Zm0,7.83a.46.46,0,0,1-.52.52v-.52Zm7.3-38.08a.52.52,0,0,1,0-1,.47.47,0,0,1,.52.52Zm0,7.82a.46.46,0,0,1-.52-.52c0-.69.17-1,.52-1s.52.35.52,1Zm0,6.26c.34,0,.52.35.52,1l-.52.52a.46.46,0,0,1-.52-.52C104.29,85.6,104.46,85.25,104.81,85.25Zm0,7.83a.47.47,0,0,1,.52.52c0,.7-.18,1-.52,1s-.52-.34-.52-1Zm0,7.82a.52.52,0,0,1,0,1l-.52-.52Zm0,7.83a.52.52,0,0,1,0,1l-.52-.52Zm.52,8.34a.46.46,0,0,1-.52.52l-.52-.52.52-.52Zm-.52,8.34v-.52h.52Zm7.83-61.54a1,1,0,1,1,1-1A.92.92,0,0,1,112.64,63.87Zm0,7.3c-.71,0-1-.17-1-.52a1,1,0,0,1,2.09,0C113.68,71,113.33,71.17,112.64,71.17Zm0,7.82c-.71,0-1-.17-1-.52a1,1,0,0,1,2.09,0C113.68,78.82,113.33,79,112.64,79Zm0,6.26a.93.93,0,0,1,1,1l-1,.52a1.47,1.47,0,0,1-1-.52A.92.92,0,0,1,112.64,85.25Zm0,7.83a1.55,1.55,0,0,1,1,.52,1,1,0,0,1-2.09,0Zm0,7.82a.47.47,0,0,1,.52.52c0,.7-.18,1-.52,1s-.53-.34-.53-1Zm0,7.83a.46.46,0,0,1,.52.52c0,.7-.18,1-.52,1s-.53-.34-.53-1Zm0,7.82a.52.52,0,1,1,0,1,.46.46,0,0,1-.53-.52Zm0,7.82.52.52a.46.46,0,0,1-.52.52l-.53-.52Zm0,8.87-.53-.52.53-.53.52.53ZM120.46,56a1,1,0,1,1,1-1A.91.91,0,0,1,120.46,56Zm0,7.83a1,1,0,1,1,1-1A.92.92,0,0,1,120.46,63.87Zm0,7.82a1,1,0,1,1,1-1A.91.91,0,0,1,120.46,71.69Zm0,7.83a1,1,0,1,1,1-1A.92.92,0,0,1,120.46,79.52Zm1,6.78a1,1,0,1,1-1-1A.92.92,0,0,1,121.5,86.3Zm-1,8.34a.91.91,0,0,1-1-1c0-.34.34-.52,1-.52s1,.18,1,.52A.92.92,0,0,1,120.46,94.64Zm0,7.82a.91.91,0,0,1-1-1c0-.34.34-.52,1-.52s1,.18,1,.52A.92.92,0,0,1,120.46,102.46Zm0,7.83a.91.91,0,0,1-1-1c0-.35.34-.52,1-.52s1,.17,1,.52A.92.92,0,0,1,120.46,110.29Zm0,7.82a.91.91,0,0,1-1-1c0-.34.34-.52,1-.52a.47.47,0,0,1,.52.52C121,117.77,120.8,118.11,120.46,118.11Zm0,6.26a.52.52,0,0,1,0,1,.52.52,0,0,1,0-1Zm0,7.82.52.53a.52.52,0,1,1-.52-.53Zm0,8.87a.52.52,0,1,1,0-1l.52.52Zm0,7.31h-.52l.52-.53Zm7.82-100.15c-1,0-1.56-.34-1.56-1s.52-1,1.56-1a1,1,0,1,1,0,2.09Zm0,7.82c-1,0-1.56-.34-1.56-1a1.38,1.38,0,0,1,1.56-1.56q1,0,1.05,1.56A.92.92,0,0,1,128.28,56Zm0,7.83c-1,0-1.56-.34-1.56-1a1.38,1.38,0,0,1,1.56-1.56q1,0,1.05,1.56A.92.92,0,0,1,128.28,63.87Zm0,7.82c-1,0-1.56-.34-1.56-1a1.39,1.39,0,0,1,1.56-1.57c.7,0,1.05.53,1.05,1.57A.92.92,0,0,1,128.28,71.69Zm0,7.83q-1.56,0-1.56-1a1.38,1.38,0,0,1,1.56-1.56q1,0,1.05,1.56A.93.93,0,0,1,128.28,79.52Zm1.05,6.78a.92.92,0,0,1-1.05,1c-1,0-1.56-.34-1.56-1a1.38,1.38,0,0,1,1.56-1.57C129,84.73,129.33,85.25,129.33,86.3Zm-1.05,8.86a1.38,1.38,0,0,1-1.56-1.56c0-.69.52-1,1.56-1a.93.93,0,0,1,1.05,1Q129.33,95.16,128.28,95.16Zm0,7.83c-.7,0-1-.53-1-1.57a1,1,0,0,1,2.09,0C129.33,102.46,129,103,128.28,103Zm0,7.3a1,1,0,0,1,0-2.09,1,1,0,1,1,0,2.09Zm.52,6.26a1.06,1.06,0,0,1-.26.78,1.05,1.05,0,0,0-.26.78,1,1,0,1,1,0-2.08Zm55.29-19.82q21.38-6.27,44.34-.52a75.16,75.16,0,0,1,27.64,14.34,85.19,85.19,0,0,1,20.34,23.73q8.86-5.21,17.21-10.43t17.22-9.91a28.49,28.49,0,0,1,4.43,5.74c1.21,2.08,2.52,4.17,3.91,6.26q-3.65,2.61-7,4.69c-2.27,1.39-4.78,2.79-7.56,4.17q-9.39.52-18.78.26T267,134.8a3.33,3.33,0,0,1-3.39-.78,19.33,19.33,0,0,0-2.87-2.35A76.16,76.16,0,0,0,230,115a82.44,82.44,0,0,0-34.42-2.08,92.23,92.23,0,0,0-19.82,5.21A87.09,87.09,0,0,0,158,127.5a78.24,78.24,0,0,0-17.73,16.95,93.65,93.65,0,0,0-12,21.13,13.89,13.89,0,0,1-.26-7.05c.52-2.25,1.13-4.43,1.83-6.51a92,92,0,0,1,20.86-35.47A77.84,77.84,0,0,1,184.09,96.73ZM168.44,82.65a76.82,76.82,0,0,1,33.91-9.91,79.7,79.7,0,0,1,34.94,5.73A78.53,78.53,0,0,1,266,98.81c1.74,2.44,3.47,4.79,5.22,7s3.47,4.78,5.21,7.56q8.86-5.73,17.74-11L311.88,92a96.6,96.6,0,0,1,7.3,10.43q-10.44,6.27-20.6,12.52T278,127.5a84.38,84.38,0,0,0-27.13-27.12,90,90,0,0,0-39.64-11.74,81.12,81.12,0,0,0-40.16,7.57A84.93,84.93,0,0,0,145,115.51a92.23,92.23,0,0,0-17.21,27.12,83.47,83.47,0,0,1,13.3-34.95A74.07,74.07,0,0,1,168.44,82.65Zm9.39,40.16a74.85,74.85,0,0,1,18.78-5,80.64,80.64,0,0,1,19.3-.26,69.88,69.88,0,0,1,21.64,5.48,80.76,80.76,0,0,1,19,11.73H189.31v2.61a92.24,92.24,0,0,0-21.65,7.83,73.18,73.18,0,0,0-18.51,13.56,87.55,87.55,0,0,0-17.22,21.38,18.34,18.34,0,0,1-1-2.61,9.74,9.74,0,0,1-.52-3.13,78.61,78.61,0,0,1,18-31.55A76.27,76.27,0,0,1,177.83,122.81ZM136.11,40.92c-.35,0-.87-.34-1.57-1a9.19,9.19,0,0,0,2.61-1.05v.52C137.15,40.4,136.8,40.92,136.11,40.92Zm0,7.82a1.57,1.57,0,1,1,0-3.13c.69,0,1,.52,1,1.57S136.8,48.74,136.11,48.74Zm0,7.83A1.57,1.57,0,1,1,137.67,55,1.39,1.39,0,0,1,136.11,56.57Zm0,7.82a1.57,1.57,0,1,1,1.56-1.57A1.39,1.39,0,0,1,136.11,64.39Zm0,7.82a1.57,1.57,0,1,1,1.56-1.56A1.38,1.38,0,0,1,136.11,72.21Zm0,7.83a1.57,1.57,0,1,1,1.56-1.57A1.39,1.39,0,0,1,136.11,80Zm0,4.69a1.38,1.38,0,0,1,1.56,1.57c0,.7-.52,1-1.56,1s-1.57-.34-1.57-1A1.39,1.39,0,0,1,136.11,84.73Zm0,7.82c1,0,1.56.36,1.56,1a1.57,1.57,0,0,1-3.13,0C134.54,92.91,135.06,92.55,136.11,92.55Zm0,7.83a.92.92,0,0,1,1,1c0,1-.35,1.57-1,1.57a1.39,1.39,0,0,1-1.57-1.57C134.54,100.73,135.06,100.38,136.11,100.38Zm-1.05,86.06A72.25,72.25,0,0,1,157,158.27a76.91,76.91,0,0,1,32.34-15.12V161.4a80.76,80.76,0,0,0-36,17.22,57.65,57.65,0,0,0-7.82,7,96.82,96.82,0,0,0-6.79,8.08c-.7-1-1.39-2.17-2.08-3.39A15.17,15.17,0,0,1,135.06,186.44Zm8.87-137.7c-1.39,0-2.09-.52-2.09-1.56s.7-1.57,2.09-1.57a1.57,1.57,0,1,1,0,3.13Zm0,7.83c-1.39,0-2.09-.53-2.09-1.57s.7-1.56,2.09-1.56a1.57,1.57,0,1,1,0,3.13Zm0,7.82c-1.39,0-2.09-.52-2.09-1.57a1.85,1.85,0,0,1,2.09-2.08c1,0,1.57.7,1.57,2.08A1.39,1.39,0,0,1,143.93,64.39Zm0,7.82c-1.39,0-2.09-.52-2.09-1.56a1.85,1.85,0,0,1,2.09-2.09c1,0,1.57.7,1.57,2.09A1.39,1.39,0,0,1,143.93,72.21Zm1.57,6.26A1.39,1.39,0,0,1,143.93,80c-1.39,0-2.09-.52-2.09-1.57a1.85,1.85,0,0,1,2.09-2.08C145,76.39,145.5,77.09,145.5,78.47Zm-1.57,9.39c-1.39,0-2.09-.52-2.09-1.56a1.85,1.85,0,0,1,2.09-2.09c1,0,1.57.7,1.57,2.09A1.39,1.39,0,0,1,143.93,87.86Zm0,4.17a.93.93,0,0,1,1,1,4.09,4.09,0,0,0-.78,1,2.81,2.81,0,0,1-1.3,1q-1,0-1-1.56C141.84,92.55,142.54,92,143.93,92Zm0-51.11a1.57,1.57,0,1,1,1.57-1.57A1.39,1.39,0,0,1,143.93,40.92Zm7.82-7.82a3,3,0,0,1-2.08-1.05l3.13-1.56a1.47,1.47,0,0,0,.52,1A1.39,1.39,0,0,1,151.75,33.1Zm0,8.34a1.84,1.84,0,0,1-2.08-2.09c0-1,.69-1.56,2.08-1.56a1.38,1.38,0,0,1,1.57,1.56C153.32,40.75,152.8,41.44,151.75,41.44Zm0,7.82a1.84,1.84,0,0,1-2.08-2.08,1.84,1.84,0,0,1,2.08-2.09c1.05,0,1.57.7,1.57,2.09S152.8,49.26,151.75,49.26Zm0,7.83a2.09,2.09,0,0,1,0-4.18c1.05,0,1.57.71,1.57,2.09S152.8,57.09,151.75,57.09Zm0,7.82a2.09,2.09,0,0,1,0-4.17c1.05,0,1.57.7,1.57,2.08S152.8,64.91,151.75,64.91Zm0,7.83a2.09,2.09,0,0,1,0-4.18c1.05,0,1.57.7,1.57,2.09S152.8,72.74,151.75,72.74Zm0,3.65c1.05,0,1.57.7,1.57,2.08s-.52,2.09-1.57,2.09a2.09,2.09,0,0,1,0-4.17Zm0,7.82a1.38,1.38,0,0,1,1.57,1.56,11.49,11.49,0,0,0-2.61,2.09c-.7-.69-1-1.21-1-1.56A1.84,1.84,0,0,1,151.75,84.21Zm7.31-34.95A1.84,1.84,0,0,1,157,47.18a2.09,2.09,0,1,1,4.17,0A1.84,1.84,0,0,1,159.06,49.26Zm0,7.83a2.09,2.09,0,0,1,0-4.18c1.73,0,2.6.71,2.6,2.09S160.79,57.09,159.06,57.09Zm0,7.82a2.09,2.09,0,1,1,0-4.17c1.73,0,2.6.7,2.6,2.08S160.79,64.91,159.06,64.91Zm0,7.83A1.85,1.85,0,0,1,157,70.65c0-1.74.69-2.61,2.09-2.61a2.3,2.3,0,0,1,2.6,2.61C161.66,72,160.79,72.74,159.06,72.74Zm0,3.13a2.3,2.3,0,0,1,2.6,2.6c0,1.4-.87,2.09-2.6,2.09A1.84,1.84,0,0,1,157,78.47C157,76.74,157.66,75.87,159.06,75.87Zm0-42.25c-1.05,0-1.57-.7-1.57-2.09A1.39,1.39,0,0,1,159.06,30c1.38,0,2.08.53,2.08,1.57A1.85,1.85,0,0,1,159.06,33.62Zm0,7.82c-1.05,0-1.57-.69-1.57-2.09s.52-2.08,1.57-2.08a1.84,1.84,0,0,1,2.08,2.08A1.84,1.84,0,0,1,159.06,41.44Zm7.82-7.82a1.85,1.85,0,0,1-2.09-2.09,2.09,2.09,0,0,1,4.18,0A1.85,1.85,0,0,1,166.88,33.62Zm0,7.82a1.85,1.85,0,0,1-2.09-2.09,2.09,2.09,0,0,1,4.18,0A1.85,1.85,0,0,1,166.88,41.44Zm0,7.82a1.84,1.84,0,0,1-2.09-2.08,1.85,1.85,0,0,1,2.09-2.09c1.74,0,2.61.7,2.61,2.09S168.62,49.26,166.88,49.26Zm0,8.35c-1.39,0-2.09-.87-2.09-2.61s.7-2.61,2.09-2.61A2.31,2.31,0,0,1,169.49,55,2.31,2.31,0,0,1,166.88,57.61Zm0,7.82c-1.39,0-2.09-.86-2.09-2.61s.7-2.6,2.09-2.6a2.3,2.3,0,0,1,2.61,2.6A2.3,2.3,0,0,1,166.88,65.43Zm0,7.83c-1.39,0-2.09-.87-2.09-2.61s.7-2.61,2.09-2.61a2.61,2.61,0,1,1,0,5.22Zm1,2.61A12,12,0,0,1,164.79,78a1.85,1.85,0,0,1,2.09-2.08Zm.52-51.12c0,.7-.52,1-1.56,1h-.52a1.51,1.51,0,0,1,1-.52A1.5,1.5,0,0,0,168.44,24.75Zm6.26,25a2.31,2.31,0,0,1-2.61-2.61,2.61,2.61,0,0,1,5.22,0A2.31,2.31,0,0,1,174.7,49.79Zm0,7.82A2.31,2.31,0,0,1,172.09,55a2.61,2.61,0,0,1,5.22,0A2.31,2.31,0,0,1,174.7,57.61Zm0,7.82a2.3,2.3,0,0,1-2.61-2.61,2.61,2.61,0,0,1,5.22,0A2.3,2.3,0,0,1,174.7,65.43Zm2.61,5.22a2.13,2.13,0,0,1-.52,1.56,1.52,1.52,0,0,1-1,.53,1.5,1.5,0,0,0-1.05.52,2.61,2.61,0,1,1,2.61-2.61ZM174.7,25.79a1.84,1.84,0,0,1-2.08-2.08h.52a8,8,0,0,0,3.13-1.05,1.55,1.55,0,0,1,.52,1.05A1.84,1.84,0,0,1,174.7,25.79Zm0,7.83a1.84,1.84,0,0,1-2.08-2.09,2.09,2.09,0,1,1,4.17,0A1.85,1.85,0,0,1,174.7,33.62Zm0,8.34c-1.39,0-2.08-.86-2.08-2.61a1.84,1.84,0,0,1,2.08-2.08c1.74,0,2.61.7,2.61,2.08A2.3,2.3,0,0,1,174.7,42Zm7.83,0a2.3,2.3,0,0,1-2.61-2.61,2.61,2.61,0,0,1,5.22,0A2.31,2.31,0,0,1,182.53,42Zm0,7.83a2.3,2.3,0,0,1-2.61-2.61,2.61,2.61,0,1,1,5.22,0A2.31,2.31,0,0,1,182.53,49.79Zm0,7.82A2.3,2.3,0,0,1,179.92,55a2.61,2.61,0,1,1,5.22,0A2.31,2.31,0,0,1,182.53,57.61Zm0,7.82a2.3,2.3,0,0,1-2.61-2.61c0-2.08.86-3.12,2.61-3.12,2.08,0,3.13,1,3.13,3.12C185.66,64.57,184.61,65.43,182.53,65.43Zm0,2.09a3.37,3.37,0,0,1,3.13,2.09q-4.18,1-5.74,1.56v-.52C179.92,68.56,180.78,67.52,182.53,67.52Zm0-41.73a1.84,1.84,0,0,1-2.09-2.08,2.09,2.09,0,1,1,4.17,0A1.84,1.84,0,0,1,182.53,25.79Zm0,8.35c-1.4,0-2.09-.87-2.09-2.61a1.85,1.85,0,0,1,2.09-2.09c1.73,0,2.61.71,2.61,2.09A2.31,2.31,0,0,1,182.53,34.14Zm7.82,24c-2.08,0-3.13-1-3.13-3.13s1.05-3.13,3.13-3.13,3.13,1,3.13,3.13S192.44,58.13,190.35,58.13Zm0,7.82c-2.08,0-3.13-1-3.13-3.13s1.05-3.12,3.13-3.12,3.13,1,3.13,3.12S192.44,66,190.35,66Zm0,1.57a2.12,2.12,0,0,1,2.09,1,12.3,12.3,0,0,0-2.35.26,14.17,14.17,0,0,1-2.87.26C187.56,68,188.61,67.52,190.35,67.52Zm0-33.38a2.31,2.31,0,0,1-2.61-2.61c0-1.38.87-2.09,2.61-2.09s2.61.71,2.61,2.09A2.31,2.31,0,0,1,190.35,34.14Zm0,7.82a2.3,2.3,0,0,1-2.61-2.61,2.61,2.61,0,0,1,5.22,0A2.3,2.3,0,0,1,190.35,42Zm0,7.83a2.31,2.31,0,0,1-2.61-2.61,2.61,2.61,0,0,1,5.22,0A2.31,2.31,0,0,1,190.35,49.79Zm0-23.48c-1.39,0-2.08-.86-2.08-2.6a2.09,2.09,0,1,1,4.17,0C192.44,25.45,191.74,26.31,190.35,26.31Zm4.17,166.91h77.72v15.65H194.52Zm0,20.86h77.72v18.26H205a17.25,17.25,0,0,1-5.21.26,52.19,52.19,0,0,1-5.22-.78Zm3.65-163.77c-2.08,0-3.12-1.05-3.12-3.13q0-2.61,3.12-2.61a2.31,2.31,0,0,1,2.61,2.61C200.78,49.26,199.91,50.31,198.17,50.31Zm0,7.82q-3.12,0-3.12-3.13t3.12-3.13q3.14,0,3.13,3.13T198.17,58.13Zm0,7.82q-3.12,0-3.12-3.13t3.12-3.12q3.14,0,3.13,3.12T198.17,66Zm0-31.81a2.3,2.3,0,0,1-2.6-2.61c0-1.38.86-2.09,2.6-2.09s2.61.71,2.61,2.09A2.31,2.31,0,0,1,198.17,34.14Zm0,7.82a2.3,2.3,0,0,1-2.6-2.61,2.61,2.61,0,0,1,5.21,0A2.3,2.3,0,0,1,198.17,42Zm0-15.65c-1.39,0-2.08-.86-2.08-2.6a2.09,2.09,0,1,1,4.17,0C200.26,25.45,199.56,26.31,198.17,26.31Zm0,40.69a1.11,1.11,0,0,1,.79.26,1,1,0,0,0,.78.26,9.07,9.07,0,0,0-3.65.52A3,3,0,0,1,198.17,67Zm0,75.1a1.38,1.38,0,0,1-1.56-1.56v-1h3.13v1A1.38,1.38,0,0,1,198.17,142.1Zm0,4.7a1.39,1.39,0,0,1,1.57,1.57c0,.7-.52,1-1.57,1s-1.56-.34-1.56-1A1.38,1.38,0,0,1,198.17,146.8Zm0,8.35a1,1,0,1,1-1,1A.92.92,0,0,1,198.17,155.15Zm0,7.82a.93.93,0,0,1,1.05,1c0,.35-.35.52-1.05.52s-1-.17-1-.52A.92.92,0,0,1,198.17,163Zm.53,8.86-.53.53a.46.46,0,0,1-.52-.53c0-.69.17-1,.52-1S198.7,171.14,198.7,171.83Zm0,7.31a.46.46,0,0,1-.53.52.46.46,0,0,1-.52-.52h1ZM206,66c-2.44,0-3.65-1-3.65-3.13,0-2.42,1.21-3.65,3.65-3.65,2.08,0,3.13,1.23,3.13,3.65C209.13,64.91,208.08,66,206,66Zm0-15.64c-2.09,0-3.13-1.05-3.13-3.13s1-3.13,3.13-3.13c1.73,0,2.61,1,2.61,3.13S207.73,50.31,206,50.31Zm0,7.82q-3.13,0-3.13-3.13T206,51.87c2.08,0,3.13,1,3.13,3.13S208.08,58.13,206,58.13Zm0-24a2.3,2.3,0,0,1-2.61-2.61,2.61,2.61,0,0,1,5.22,0A2.31,2.31,0,0,1,206,34.14ZM206,42a2.3,2.3,0,0,1-2.61-2.61,2.61,2.61,0,0,1,5.22,0A2.31,2.31,0,0,1,206,42Zm0-15.65c-1.39,0-2.09-.86-2.09-2.6a2.09,2.09,0,1,1,4.17,0C208.08,25.45,207.38,26.31,206,26.31Zm-1.57,41.21a2.62,2.62,0,0,1,3.13,0ZM206,142.1a1.38,1.38,0,0,1-1.57-1.56v-1H207a1.55,1.55,0,0,1,.52,1A1.38,1.38,0,0,1,206,142.1Zm0,4.7c.69,0,1,.52,1,1.57a.92.92,0,0,1-1,1c-1.05,0-1.57-.34-1.57-1A1.39,1.39,0,0,1,206,146.8Zm0,8.35a1,1,0,1,1-1.05,1A.92.92,0,0,1,206,155.15Zm0,7.82a.92.92,0,0,1,1,1c0,.35-.35.52-1,.52S205,164.36,205,164A.93.93,0,0,1,206,163Zm.52,8.86-.52.53a.46.46,0,0,1-.52-.53c0-.69.17-1,.52-1S206.52,171.14,206.52,171.83Zm0,7.31a.52.52,0,0,1-1,0h1ZM206,187v.52l-.52-.52Zm7.82-121q-3.65,0-3.65-3.13t3.65-3.12q3.13,0,3.13,3.12T213.82,66Zm0-15.64c-2.09,0-3.13-1.05-3.13-3.13,0-1.74,1-2.61,3.13-2.61a2.31,2.31,0,0,1,2.61,2.61C216.43,49.26,215.56,50.31,213.82,50.31Zm0,7.82q-3.13,0-3.13-3.13t3.13-3.13Q217,51.87,217,55T213.82,58.13Zm0-24a2.31,2.31,0,0,1-2.61-2.61c0-1.38.87-2.09,2.61-2.09a1.85,1.85,0,0,1,2.09,2.09C215.91,33.27,215.21,34.14,213.82,34.14Zm0,7.82a2.3,2.3,0,0,1-2.61-2.61,2.61,2.61,0,0,1,5.22,0A2.3,2.3,0,0,1,213.82,42Zm0-15.65c-1.39,0-2.09-.86-2.09-2.6a2.09,2.09,0,0,1,4.18,0C215.91,25.45,215.21,26.31,213.82,26.31Zm0,40.69a3,3,0,0,1,2.09,1,11.86,11.86,0,0,0-3.65-.52,1.05,1.05,0,0,0,.78-.26A1.06,1.06,0,0,1,213.82,67Zm0,75.1a1.38,1.38,0,0,1-1.56-1.56v-1h2.6a1.52,1.52,0,0,1,.53,1A1.39,1.39,0,0,1,213.82,142.1Zm0,4.7c.7,0,1,.52,1,1.57a.91.91,0,0,1-1,1c-1,0-1.56-.34-1.56-1A1.38,1.38,0,0,1,213.82,146.8Zm0,8.35a1,1,0,1,1-1,1A.91.91,0,0,1,213.82,155.15Zm0,7.82c.34,0,.52.35.52,1a.46.46,0,0,1-.52.52c-.7,0-1-.17-1-.52A.92.92,0,0,1,213.82,163Zm0,9.39a1.44,1.44,0,0,1-1-.53.92.92,0,0,1,1-1l.52,1Zm.52,6.78a.52.52,0,1,1-1,0h1Zm-.52,7.82v.52l-.52-.52Zm7.83-137.17c-2.09,0-3.13-.87-3.13-2.61s1-2.61,3.13-2.61a2.3,2.3,0,0,1,2.6,2.61A2.3,2.3,0,0,1,221.65,49.79Zm0,8.34q-3.14,0-3.13-3.13t3.13-3.13c1.73,0,2.6,1,2.6,3.13S223.38,58.13,221.65,58.13Zm0,7.82q-3.14,0-3.13-3.13t3.13-3.12c2.08,0,3.13,1,3.13,3.12S223.73,66,221.65,66Zm0-39.64a2.3,2.3,0,0,1-2.61-2.6c0-1.39.86-2.09,2.61-2.09a1.85,1.85,0,0,1,2.08,2.09C223.73,25.45,223,26.31,221.65,26.31Zm0,7.83A2.3,2.3,0,0,1,219,31.53c0-1.38.86-2.09,2.61-2.09a1.85,1.85,0,0,1,2.08,2.09C223.73,33.27,223,34.14,221.65,34.14Zm0,7.82A2.3,2.3,0,0,1,219,39.35a2.61,2.61,0,0,1,5.21,0A2.3,2.3,0,0,1,221.65,42Zm0,25.56a3.06,3.06,0,0,1,2.6,1.56,11.45,11.45,0,0,1-2.34-.26,15.08,15.08,0,0,0-2.87-.26C219.38,67.87,220.25,67.52,221.65,67.52Zm0,74.58a1.38,1.38,0,0,1-1.57-1.56v-1h2.61c0,.35.08.52.26.52s.26.18.26.52A1.38,1.38,0,0,1,221.65,142.1Zm0,4.7c.69,0,1,.52,1,1.57a.92.92,0,0,1-1,1c-1.05,0-1.57-.34-1.57-1A1.39,1.39,0,0,1,221.65,146.8Zm0,8.35a1,1,0,1,1-1.05,1A.92.92,0,0,1,221.65,155.15Zm0,7.82c.34,0,.52.35.52,1a.46.46,0,0,1-.52.52c-.71,0-1.05-.17-1.05-.52A.92.92,0,0,1,221.65,163Zm0,9.39a1.46,1.46,0,0,1-1.05-.53.92.92,0,0,1,1.05-1l.52,1Zm0,7.3a.46.46,0,0,1-.53-.52h.53Zm0,7.3v.52a.46.46,0,0,1-.53-.52Zm7.82-137.17c-2.09,0-3.13-.87-3.13-2.61s1-2.61,3.13-2.61a2.31,2.31,0,0,1,2.61,2.61A2.31,2.31,0,0,1,229.47,49.79Zm0,7.82c-2.09,0-3.13-.87-3.13-2.61s1-2.61,3.13-2.61A2.31,2.31,0,0,1,232.08,55,2.31,2.31,0,0,1,229.47,57.61Zm0,7.82c-2.09,0-3.13-.86-3.13-2.61q0-3.12,3.13-3.12c1.73,0,2.61,1,2.61,3.12A2.31,2.31,0,0,1,229.47,65.43Zm2.61,5.74a28.12,28.12,0,0,0-2.87-.78,22.8,22.8,0,0,1-2.87-.78,3.34,3.34,0,0,1,3.13-2.09c1.73,0,2.61,1,2.61,3.13Zm-2.61-37a2.31,2.31,0,0,1-2.61-2.61c0-1.38.87-2.09,2.61-2.09a1.85,1.85,0,0,1,2.09,2.09C231.56,33.27,230.86,34.14,229.47,34.14Zm0,7.82a2.3,2.3,0,0,1-2.61-2.61,2.3,2.3,0,0,1,2.61-2.6c1.39,0,2.09.87,2.09,2.6S230.86,42,229.47,42Zm0-16.17a1.84,1.84,0,0,1-2.09-2.08,2.09,2.09,0,1,1,4.18,0A1.84,1.84,0,0,1,229.47,25.79Zm0,116.31a1.38,1.38,0,0,1-1.56-1.56v-1h2.6v1C230.51,141.58,230.16,142.1,229.47,142.1Zm0,4.7c.69,0,1,.52,1,1.57a.92.92,0,0,1-1,1c-1,0-1.56-.34-1.56-1A1.38,1.38,0,0,1,229.47,146.8Zm0,8.35a1,1,0,1,1-1,1A.92.92,0,0,1,229.47,155.15Zm0,7.82.52,1-.52.52a1.47,1.47,0,0,1-1-.52A.92.92,0,0,1,229.47,163Zm0,9.39a1.44,1.44,0,0,1-1-.53.92.92,0,0,1,1-1l.52,1Zm0,7.3a.46.46,0,0,1-.52-.52h.52Zm0,7.3v.52A.46.46,0,0,1,229,187Zm7.3-129.35A2.31,2.31,0,0,1,234.16,55a2.61,2.61,0,1,1,5.22,0A2.31,2.31,0,0,1,236.77,57.61Zm0,7.82a2.3,2.3,0,0,1-2.61-2.61,2.3,2.3,0,0,1,2.61-2.6c2.09,0,3.13.87,3.13,2.6S238.86,65.43,236.77,65.43Zm3.13,5.22a2.31,2.31,0,0,1-2.61,2.61,1.5,1.5,0,0,0-1-.52,1.48,1.48,0,0,1-1-.53q-1.05-1-1.05-1.56A2.31,2.31,0,0,1,236.77,68C238.86,68,239.9,68.91,239.9,70.65Zm-3.13-37a1.84,1.84,0,0,1-2.08-2.09,1.85,1.85,0,0,1,2.08-2.09c1.74,0,2.61.71,2.61,2.09S238.51,33.62,236.77,33.62Zm0,8.34c-1.39,0-2.08-.86-2.08-2.61a1.84,1.84,0,0,1,2.08-2.08c1.74,0,2.61.7,2.61,2.08A2.3,2.3,0,0,1,236.77,42Zm0,7.83c-1.39,0-2.08-.87-2.08-2.61s.69-2.61,2.08-2.61a2.31,2.31,0,0,1,2.61,2.61A2.31,2.31,0,0,1,236.77,49.79Zm-1.56-26.08a1.67,1.67,0,0,1,1-1.57,2.38,2.38,0,0,1,1,.26,3.56,3.56,0,0,0,1.57.26v1.05a1.84,1.84,0,0,1-2.09,2.08C235.73,25.79,235.21,25.1,235.21,23.71Zm1.56,118.39c-.7,0-1-.52-1-1.56v-1h2.61v1A1.39,1.39,0,0,1,236.77,142.1Zm0,5.22c1,0,1.57.35,1.57,1.05s-.53,1-1.57,1a1,1,0,0,1,0-2.09Zm0,7.83a1,1,0,1,1,0,2.08c-.35,0-.52-.34-.52-1S236.42,155.15,236.77,155.15Zm0,7.82a.92.92,0,0,1,1,1l-1,.52-.52-.52A1.5,1.5,0,0,1,236.77,163Zm1,8.86-1,.53-.52-.53a1.5,1.5,0,0,1,.52-1A.92.92,0,0,1,237.81,171.83Zm-.52,7.31a.46.46,0,0,1-.52.52v-.52Zm0,7.82-.52.52V187Zm7.3-153.34a1.84,1.84,0,0,1-2.08-2.09,2.09,2.09,0,1,1,4.17,0A1.85,1.85,0,0,1,244.59,33.62Zm0,7.82a1.84,1.84,0,0,1-2.08-2.09,1.84,1.84,0,0,1,2.08-2.08c1.74,0,2.61.7,2.61,2.08S246.33,41.44,244.59,41.44Zm0,7.82a1.84,1.84,0,0,1-2.08-2.08,1.84,1.84,0,0,1,2.08-2.09c1.74,0,2.61.7,2.61,2.09S246.33,49.26,244.59,49.26Zm0,8.35c-1.39,0-2.08-.87-2.08-2.61s.69-2.61,2.08-2.61A2.31,2.31,0,0,1,247.2,55,2.31,2.31,0,0,1,244.59,57.61Zm0,7.82c-1.39,0-2.08-.86-2.08-2.61s.69-2.6,2.08-2.6a2.3,2.3,0,0,1,2.61,2.6A2.3,2.3,0,0,1,244.59,65.43Zm0,7.83c-1.39,0-2.08-.87-2.08-2.61S243.2,68,244.59,68a2.61,2.61,0,0,1,0,5.22Zm0-47.47c-1,0-1.56-.69-1.56-2.08a4,4,0,0,0,1.56.52,4.16,4.16,0,0,1,1.57.52C246.16,25.45,245.64,25.79,244.59,25.79Zm0,50.08c1.74,0,2.61.7,2.61,2.08a32.27,32.27,0,0,1-3.65-2.08Zm0,65.71a.91.91,0,0,1-1-1v-1h2.09a1.55,1.55,0,0,1,.52,1C246.16,141.24,245.64,141.58,244.59,141.58Zm0,5.74a1,1,0,1,1,0,2.09,1,1,0,0,1,0-2.09Zm0,7.83a.92.92,0,0,1,1,1c0,.35-.35.52-1,.52a.46.46,0,0,1-.52-.52C244.07,155.49,244.25,155.15,244.59,155.15Zm0,7.82a.93.93,0,0,1,1,1l-1,.52-.52-.52A1.55,1.55,0,0,1,244.59,163Zm0,8.86h-.52a.53.53,0,0,1,1.05,0Zm.53,7.31a.46.46,0,0,1-.53.52v-.52Zm7.3-137.7a1.85,1.85,0,0,1-2.09-2.09,2.09,2.09,0,0,1,4.17,0A1.84,1.84,0,0,1,252.42,41.44Zm0,7.82a1.84,1.84,0,0,1-2.09-2.08,2.09,2.09,0,1,1,4.17,0A1.84,1.84,0,0,1,252.42,49.26Zm0,7.83A2.09,2.09,0,1,1,254.5,55,1.85,1.85,0,0,1,252.42,57.09Zm0,7.82a2.09,2.09,0,1,1,0-4.17c1.74,0,2.61.7,2.61,2.08S254.16,64.91,252.42,64.91Zm0,7.83a1.85,1.85,0,0,1-2.09-2.09c0-1.74.7-2.61,2.09-2.61A2.31,2.31,0,0,1,255,70.65C255,72,254.16,72.74,252.42,72.74Zm0,3.13a2.3,2.3,0,0,1,2.61,2.6c0,1.4-.87,2.09-2.61,2.09a1.85,1.85,0,0,1-2.09-2.09C250.33,76.74,251,75.87,252.42,75.87Zm0-42.25c-1,0-1.57-.7-1.57-2.09A1.39,1.39,0,0,1,252.42,30c1.38,0,2.08.53,2.08,1.57A1.85,1.85,0,0,1,252.42,33.62Zm-1,106.92a1.52,1.52,0,0,1,.53-1h1.56c0,.35.08.52.26.52s.26.18.26.52c0,.7-.52,1-1.56,1A.92.92,0,0,1,251.37,140.54Zm1,6.78a1,1,0,1,1-1,1.05A.93.93,0,0,1,252.42,147.32Zm0,7.83a.92.92,0,0,1,1,1c0,.35-.35.52-1,.52a.46.46,0,0,1-.52-.52C251.9,155.49,252.07,155.15,252.42,155.15Zm.52,8.86-.52.52-.52-.52a.52.52,0,1,1,1,0Zm-.52,7.82v-.52a.47.47,0,0,1,.52.52Zm.52,7.31a.46.46,0,0,1-.52.52v-.52Zm7.3-122A2.09,2.09,0,1,1,262.33,55,1.84,1.84,0,0,1,260.24,57.09Zm0,7.82a2.09,2.09,0,1,1,2.09-2.09A1.84,1.84,0,0,1,260.24,64.91Zm0,7.83a2.09,2.09,0,1,1,2.09-2.09A1.84,1.84,0,0,1,260.24,72.74Zm0,3.65a2.09,2.09,0,1,1-2.08,2.08A1.85,1.85,0,0,1,260.24,76.39Zm-1.56-44.86A1.39,1.39,0,0,1,260.24,30a1.58,1.58,0,0,1,1.05.53,1.55,1.55,0,0,1,.52,1,1.57,1.57,0,1,1-3.13,0Zm1.56,9.91c-1,0-1.56-.69-1.56-2.09a1.38,1.38,0,0,1,1.56-1.56c1.39,0,2.09.52,2.09,1.56A1.85,1.85,0,0,1,260.24,41.44Zm0,7.82c-1,0-1.56-.69-1.56-2.08s.52-2.09,1.56-2.09a1.85,1.85,0,0,1,2.09,2.09A1.84,1.84,0,0,1,260.24,49.26Zm2.09,37c0,.35-.35.87-1,1.56l-2.61-2.61c0-.69.52-1,1.56-1A1.85,1.85,0,0,1,262.33,86.3Zm-3.13,54.24c0-.34.08-.52.26-.52s.26-.17.26-.52h1a1.52,1.52,0,0,1,.53,1,1,1,0,0,1-2.09,0Zm1,6.78a.93.93,0,0,1,1.05,1.05c0,.34-.35.52-1.05.52a.46.46,0,0,1-.52-.52C259.72,147.67,259.89,147.32,260.24,147.32Zm0,7.83c.34,0,.52.34.52,1l-.52.52a.46.46,0,0,1-.52-.52C259.72,155.49,259.89,155.15,260.24,155.15Zm.52,8.86-.52.52-.52-.52a.52.52,0,0,1,1,0Zm-.52,7.82v-.52l.52.52Zm7.83-130.91a1.57,1.57,0,1,1,0-3.13,1.38,1.38,0,0,1,1.56,1.56A1.38,1.38,0,0,1,268.07,40.92Zm0,7.82a1.57,1.57,0,1,1,1.56-1.56A1.38,1.38,0,0,1,268.07,48.74Zm0,7.83A1.57,1.57,0,1,1,269.63,55,1.39,1.39,0,0,1,268.07,56.57Zm0,7.82a1.39,1.39,0,0,1-1.57-1.57c0-1.38.52-2.08,1.57-2.08a1.84,1.84,0,0,1,2.08,2.08C270.15,63.87,269.45,64.39,268.07,64.39Zm0,7.82a1.38,1.38,0,0,1-1.57-1.56c0-1.39.52-2.09,1.57-2.09a1.85,1.85,0,0,1,2.08,2.09C270.15,71.69,269.45,72.21,268.07,72.21Zm2.08,6.26c0,1-.7,1.57-2.08,1.57a1.39,1.39,0,0,1-1.57-1.57c0-1.38.52-2.08,1.57-2.08A1.84,1.84,0,0,1,270.15,78.47Zm-2.08,9.39a1.38,1.38,0,0,1-1.57-1.56c0-1.39.52-2.09,1.57-2.09s1.56.7,1.56,2.09A1.38,1.38,0,0,1,268.07,87.86Zm1.56,5.74c0,1-.18,1.56-.52,1.56a2.79,2.79,0,0,1-1.31-1,2.88,2.88,0,0,0-1.3-1c.69-.7,1.22-1,1.57-1A1.38,1.38,0,0,1,269.63,93.6ZM267,140.54c0-.34.08-.52.26-.52s.27-.17.27-.52h1c0,.35.08.52.26.52s.26.18.26.52a1,1,0,0,1-2.09,0Zm1.05,6.78c.34,0,.52.35.52,1.05a.52.52,0,0,1-1,0C267.55,147.67,267.72,147.32,268.07,147.32Zm.52,8.87-.52.52-.52-.52a.52.52,0,1,1,1,0Zm-.52,7.82h-.52a.46.46,0,0,1,.52-.52l.52.52Zm6.26-124.66c0-.69.52-1,1.56-1a1.55,1.55,0,0,1,1,.52.46.46,0,0,1,.52.52,1.56,1.56,0,1,1-3.12,0Zm1.56,9.39a1.57,1.57,0,1,1,1.56-1.56A1.38,1.38,0,0,1,275.89,48.74Zm0,7.83A1.57,1.57,0,1,1,277.45,55,1.39,1.39,0,0,1,275.89,56.57Zm0,7.82a1.57,1.57,0,1,1,1.56-1.57A1.38,1.38,0,0,1,275.89,64.39Zm0,7.82a1.57,1.57,0,1,1,1.56-1.56A1.38,1.38,0,0,1,275.89,72.21Zm0,7.83a1.57,1.57,0,1,1,1.56-1.57A1.38,1.38,0,0,1,275.89,80Zm1.56,6.26a1.56,1.56,0,1,1-1.56-1.57A1.38,1.38,0,0,1,277.45,86.3Zm-1.56,8.86a1.38,1.38,0,0,1-1.56-1.56c0-.69.52-1,1.56-1s1.56.36,1.56,1A1.38,1.38,0,0,1,275.89,95.16Zm0,7.83a1.39,1.39,0,0,1-1.56-1.57c0-.69.52-1,1.56-1s1.56.35,1.56,1A1.39,1.39,0,0,1,275.89,103Zm0,37a.52.52,0,0,1,0,1,.52.52,0,0,1,0-1Zm.52,8.35-.52.52a.53.53,0,0,1,0-1A.47.47,0,0,1,276.41,148.37Zm-.52,8.34-.52-.52a.46.46,0,0,1,.52-.52l.52.52ZM283.71,56c-1,0-1.56-.34-1.56-1a1.38,1.38,0,0,1,1.56-1.56q1.05,0,1.05,1.56A.92.92,0,0,1,283.71,56Zm0,7.83c-1,0-1.56-.34-1.56-1a1.38,1.38,0,0,1,1.56-1.56q1.05,0,1.05,1.56A.92.92,0,0,1,283.71,63.87Zm0,7.82c-1,0-1.56-.34-1.56-1a1.57,1.57,0,1,1,3.13,0C285.28,71.35,284.76,71.69,283.71,71.69Zm0,7.83q-1.56,0-1.56-1a1.57,1.57,0,0,1,3.13,0C285.28,79.17,284.76,79.52,283.71,79.52Zm1.05,6.78a.92.92,0,0,1-1.05,1c-1,0-1.56-.34-1.56-1a1.38,1.38,0,0,1,1.56-1.57C284.41,84.73,284.76,85.25,284.76,86.3Zm-1.05-38.08a1,1,0,0,1,0-2.09,1,1,0,1,1,0,2.09Zm0,46.94c-.7,0-1-.52-1-1.56a1,1,0,1,1,2.09,0Q284.76,95.16,283.71,95.16Zm-.52,7.3c-.35,0-.52-.34-.52-1a1,1,0,0,1,2.09,0Zm1,38.08a.52.52,0,1,1-.52-.52A.46.46,0,0,1,284.23,140.54Zm0,7.83-.52.52a.53.53,0,0,1,0-1Zm-1,7.82a.46.46,0,0,1,.52-.52v.52ZM291.54,56a1,1,0,1,1,1-1A.92.92,0,0,1,291.54,56Zm0,7.83a1,1,0,1,1,1-1A.92.92,0,0,1,291.54,63.87Zm0,7.82a1,1,0,1,1,1-1A.92.92,0,0,1,291.54,71.69Zm0,7.83a1,1,0,1,1,1-1A.93.93,0,0,1,291.54,79.52Zm0,5.73a1,1,0,1,1-1.05,1A.93.93,0,0,1,291.54,85.25Zm0,7.3a.93.93,0,0,1,1,1,1,1,0,0,1-2.09,0A.93.93,0,0,1,291.54,92.55Zm.52,48-.52.52a.52.52,0,1,1,0-1ZM291,148.37l.53-.53v.53Zm8.35-84.5a1,1,0,0,1,0-2.09c.34,0,.52.35.52,1S299.7,63.87,299.36,63.87Zm0,7.82a1,1,0,0,1,0-2.08c.34,0,.52.35.52,1S299.7,71.69,299.36,71.69Zm.52,6.78a.46.46,0,0,1-.52.52c-.7,0-1-.17-1-.52a.92.92,0,0,1,1-1C299.7,77.43,299.88,77.78,299.88,78.47Zm-.52,8.35a1.47,1.47,0,0,1-1-.52.92.92,0,0,1,1-1c.34,0,.52.35.52,1Zm-.52,53.72.52-.52v.52Zm8.35-69.37a1.47,1.47,0,0,1-1.05-.52.92.92,0,0,1,1.05-1l.52,1Zm0,7.82a1.47,1.47,0,0,1-1.05-.52.92.92,0,0,1,1.05-1l.52,1Zm0,6.26.52,1-.52.52a1.47,1.47,0,0,1-1.05-.52A.92.92,0,0,1,307.19,85.25ZM315,79a.52.52,0,1,1,0-1v1Z"/></svg>